<svg width="13" height="13" viewBox="0 0 13 13" fill="none" xmlns="http://www.w3.org/2000/svg">
<path d="M6.5 8.6875C7.11292 8.6875 7.63083 8.47625 8.05375 8.05375C8.47625 7.63042 8.6875 7.1125 8.6875 6.5C8.6875 5.88708 8.47625 5.36917 8.05375 4.94625C7.63042 4.52375 7.1125 4.3125 6.5 4.3125C5.88708 4.3125 5.36917 4.52375 4.94625 4.94625C4.52375 5.36958 4.3125 5.8875 4.3125 6.5C4.3125 7.11292 4.52375 7.63083 4.94625 8.05375C5.36958 8.47625 5.8875 8.6875 6.5 8.6875ZM6.5 7.125C6.32292 7.125 6.17458 7.065 6.055 6.945C5.93542 6.825 5.87542 6.67667 5.875 6.5C5.875 6.32292 5.935 6.17458 6.055 6.055C6.175 5.93542 6.32333 5.87542 6.5 5.875C6.67708 5.875 6.82563 5.935 6.94563 6.055C7.06563 6.175 7.12542 6.32333 7.125 6.5C7.125 6.67708 7.065 6.82563 6.945 6.94563C6.825 7.06563 6.67667 7.12542 6.5 7.125ZM6.50187 12.125C5.72438 12.125 4.99312 11.9775 4.30813 11.6825C3.62354 11.3871 3.02792 10.9862 2.52125 10.48C2.01458 9.97417 1.61354 9.37917 1.31813 8.695C1.02271 8.01083 0.875 7.27979 0.875 6.50187C0.875 5.72438 1.0225 4.99312 1.3175 4.30813C1.61292 3.62354 2.01375 3.02792 2.52 2.52125C3.02583 2.01458 3.62083 1.61354 4.305 1.31813C4.98917 1.02271 5.72021 0.875 6.49813 0.875C7.27562 0.875 8.00688 1.0225 8.69187 1.3175C9.37646 1.61292 9.97208 2.01375 10.4787 2.52C10.9854 3.02583 11.3865 3.62083 11.6819 4.305C11.9773 4.98917 12.125 5.72021 12.125 6.49813C12.125 7.27562 11.9775 8.00688 11.6825 8.69187C11.3871 9.37646 10.9862 9.97208 10.48 10.4787C9.97417 10.9854 9.37917 11.3865 8.695 11.6819C8.01083 11.9773 7.27979 12.125 6.50187 12.125ZM6.5 11.5C7.89583 11.5 9.07812 11.0156 10.0469 10.0469C11.0156 9.07812 11.5 7.89583 11.5 6.5C11.5 5.10417 11.0156 3.92187 10.0469 2.95312C9.07812 1.98437 7.89583 1.5 6.5 1.5C5.10417 1.5 3.92187 1.98437 2.95312 2.95312C1.98437 3.92187 1.5 5.10417 1.5 6.5C1.5 7.89583 1.98437 9.07812 2.95312 10.0469C3.92187 11.0156 5.10417 11.5 6.5 11.5Z" fill="#0E9EEF"/>
</svg>
