<svg width="26" height="22" viewBox="0 0 26 22" fill="none" xmlns="http://www.w3.org/2000/svg">
<g filter="url(#filter0_d_4_53)">
<path d="M13.1 13.1458C14.1215 13.1458 14.9847 12.7937 15.6896 12.0896C16.3937 11.384 16.7458 10.5208 16.7458 9.5C16.7458 8.47847 16.3937 7.61528 15.6896 6.91042C14.984 6.20625 14.1208 5.85417 13.1 5.85417C12.0784 5.85417 11.2153 6.20625 10.5104 6.91042C9.80623 7.61597 9.45414 8.47917 9.45414 9.5C9.45414 10.5215 9.80623 11.3847 10.5104 12.0896C11.2159 12.7937 12.0791 13.1458 13.1 13.1458ZM13.1 10.5417C12.8048 10.5417 12.5576 10.4417 12.3583 10.2417C12.159 10.0417 12.059 9.79444 12.0583 9.5C12.0583 9.20486 12.1583 8.95764 12.3583 8.75833C12.5583 8.55903 12.8055 8.45903 13.1 8.45833C13.3951 8.45833 13.6427 8.55833 13.8427 8.75833C14.0427 8.95833 14.1423 9.20555 14.1416 9.5C14.1416 9.79514 14.0416 10.0427 13.8416 10.2427C13.6416 10.4427 13.3944 10.5424 13.1 10.5417ZM13.1031 18.875C11.8073 18.875 10.5885 18.6292 9.44685 18.1375C8.30588 17.6451 7.31317 16.9771 6.46873 16.1333C5.62428 15.2903 4.95588 14.2986 4.46352 13.1583C3.97116 12.0181 3.72498 10.7997 3.72498 9.50313C3.72498 8.20729 3.97081 6.98854 4.46248 5.84687C4.95484 4.7059 5.62289 3.71319 6.46664 2.86875C7.3097 2.02431 8.30136 1.3559 9.44164 0.863542C10.5819 0.371181 11.8003 0.125 13.0969 0.125C14.3927 0.125 15.6114 0.370833 16.7531 0.8625C17.8941 1.35486 18.8868 2.02292 19.7312 2.86667C20.5757 3.70972 21.2441 4.70139 21.7364 5.84167C22.2288 6.98194 22.475 8.20035 22.475 9.49687C22.475 10.7927 22.2291 12.0115 21.7375 13.1531C21.2451 14.2941 20.5771 15.2868 19.7333 16.1312C18.8903 16.9757 17.8986 17.6441 16.7583 18.1365C15.618 18.6288 14.3996 18.875 13.1031 18.875ZM13.1 17.8333C15.4264 17.8333 17.3968 17.026 19.0114 15.4115C20.626 13.7969 21.4333 11.8264 21.4333 9.5C21.4333 7.17361 20.626 5.20312 19.0114 3.58854C17.3968 1.97396 15.4264 1.16667 13.1 1.16667C10.7736 1.16667 8.8031 1.97396 7.18852 3.58854C5.57393 5.20312 4.76664 7.17361 4.76664 9.5C4.76664 11.8264 5.57393 13.7969 7.18852 15.4115C8.8031 17.026 10.7736 17.8333 13.1 17.8333Z" fill="white"/>
</g>
<defs>
<filter id="filter0_d_4_53" x="-0.275024" y="0.125" width="26.75" height="26.75" filterUnits="userSpaceOnUse" color-interpolation-filters="sRGB">
<feFlood flood-opacity="0" result="BackgroundImageFix"/>
<feColorMatrix in="SourceAlpha" type="matrix" values="0 0 0 0 0 0 0 0 0 0 0 0 0 0 0 0 0 0 127 0" result="hardAlpha"/>
<feOffset dy="4"/>
<feGaussianBlur stdDeviation="2"/>
<feComposite in2="hardAlpha" operator="out"/>
<feColorMatrix type="matrix" values="0 0 0 0 0 0 0 0 0 0 0 0 0 0 0 0 0 0 0.25 0"/>
<feBlend mode="normal" in2="BackgroundImageFix" result="effect1_dropShadow_4_53"/>
<feBlend mode="normal" in="SourceGraphic" in2="effect1_dropShadow_4_53" result="shape"/>
</filter>
</defs>
</svg>
