<svg width="12" height="12" viewBox="0 0 12 12" fill="none" xmlns="http://www.w3.org/2000/svg">
<path d="M0 1.002C6.74228e-06 0.818604 0.0504473 0.63874 0.145805 0.482084C0.241162 0.325428 0.377764 0.198011 0.540669 0.113772C0.703574 0.0295319 0.886507 -0.0082869 1.06946 0.00445199C1.25241 0.0171909 1.42834 0.0799969 1.578 0.186L8.578 5.149C8.70803 5.24095 8.81422 5.36262 8.88773 5.50389C8.96125 5.64516 8.99996 5.80195 9.00064 5.9612C9.00133 6.12045 8.96397 6.27756 8.89167 6.41946C8.81938 6.56136 8.71424 6.68394 8.585 6.777L1.585 11.814C1.43567 11.9217 1.25949 11.9861 1.0759 12.0001C0.8923 12.0141 0.708409 11.9771 0.544493 11.8932C0.380577 11.8093 0.242999 11.6818 0.146924 11.5248C0.0508487 11.3677 6.12982e-06 11.1871 0 11.003V1.002ZM12 0.5C12 0.367392 11.9473 0.240215 11.8536 0.146447C11.7598 0.0526785 11.6326 0 11.5 0C11.3674 0 11.2402 0.0526785 11.1464 0.146447C11.0527 0.240215 11 0.367392 11 0.5V11.5C11 11.6326 11.0527 11.7598 11.1464 11.8536C11.2402 11.9473 11.3674 12 11.5 12C11.6326 12 11.7598 11.9473 11.8536 11.8536C11.9473 11.7598 12 11.6326 12 11.5V0.5Z" fill="#EE10B0"/>
</svg>
