<svg width="14" height="11" viewBox="0 0 14 11" fill="none" xmlns="http://www.w3.org/2000/svg">
<path d="M0.875 0.75C0.875 0.62568 0.924386 0.506451 1.01229 0.418544C1.1002 0.330636 1.21943 0.28125 1.34375 0.28125H11.6562C11.7806 0.28125 11.8998 0.330636 11.9877 0.418544C12.0756 0.506451 12.125 0.62568 12.125 0.75C12.125 0.87432 12.0756 0.993549 11.9877 1.08146C11.8998 1.16936 11.7806 1.21875 11.6562 1.21875H1.34375C1.21943 1.21875 1.1002 1.16936 1.01229 1.08146C0.924386 0.993549 0.875 0.87432 0.875 0.75ZM1.34375 4.96875H8.375C8.49932 4.96875 8.61855 4.91936 8.70646 4.83146C8.79436 4.74355 8.84375 4.62432 8.84375 4.5C8.84375 4.37568 8.79436 4.25645 8.70646 4.16854C8.61855 4.08064 8.49932 4.03125 8.375 4.03125H1.34375C1.21943 4.03125 1.1002 4.08064 1.01229 4.16854C0.924386 4.25645 0.875 4.37568 0.875 4.5C0.875 4.62432 0.924386 4.74355 1.01229 4.83146C1.1002 4.91936 1.21943 4.96875 1.34375 4.96875ZM5.5625 7.78125H1.34375C1.21943 7.78125 1.1002 7.83064 1.01229 7.91854C0.924386 8.00645 0.875 8.12568 0.875 8.25C0.875 8.37432 0.924386 8.49355 1.01229 8.58146C1.1002 8.66936 1.21943 8.71875 1.34375 8.71875H5.5625C5.68682 8.71875 5.80605 8.66936 5.89396 8.58146C5.98186 8.49355 6.03125 8.37432 6.03125 8.25C6.03125 8.12568 5.98186 8.00645 5.89396 7.91854C5.80605 7.83064 5.68682 7.78125 5.5625 7.78125ZM13.5113 4.40039C13.4936 4.45958 13.4644 4.51469 13.4253 4.56255C13.3863 4.61041 13.3381 4.65008 13.2837 4.67926C13.2292 4.70845 13.1695 4.72658 13.108 4.73262C13.0466 4.73866 12.9845 4.73249 12.9254 4.71445L11.1875 4.19238V8.25C11.1882 8.6636 11.0523 9.06585 10.8009 9.3943C10.5496 9.72276 10.1968 9.95905 9.7974 10.0665C9.398 10.1739 8.97431 10.1465 8.59208 9.98849C8.20986 9.83047 7.8905 9.55069 7.68357 9.19257C7.47665 8.83446 7.39373 8.41805 7.4477 8.00799C7.50167 7.59793 7.6895 7.21715 7.98204 6.92477C8.27457 6.63239 8.65545 6.44477 9.06554 6.39102C9.47564 6.33728 9.892 6.42042 10.25 6.62754V3.5625C10.25 3.48943 10.2671 3.41738 10.2999 3.35209C10.3328 3.28681 10.3804 3.2301 10.439 3.1865C10.4977 3.14289 10.5657 3.1136 10.6376 3.10095C10.7096 3.08831 10.7835 3.09266 10.8535 3.11367L13.1973 3.8168C13.3163 3.85257 13.4162 3.93414 13.4751 4.04357C13.534 4.15301 13.547 4.28135 13.5113 4.40039ZM10.25 8.25C10.25 8.06458 10.195 7.88332 10.092 7.72915C9.98899 7.57498 9.84257 7.45482 9.67127 7.38386C9.49996 7.31291 9.31146 7.29434 9.1296 7.33051C8.94775 7.36669 8.7807 7.45598 8.64959 7.58709C8.51848 7.7182 8.42919 7.88525 8.39301 8.0671C8.35684 8.24896 8.37541 8.43746 8.44636 8.60877C8.51732 8.78007 8.63748 8.92649 8.79165 9.0295C8.94582 9.13252 9.12708 9.1875 9.3125 9.1875C9.56114 9.1875 9.7996 9.08873 9.97541 8.91291C10.1512 8.7371 10.25 8.49864 10.25 8.25Z" fill="#EE10B0"/>
</svg>
