<svg width="12" height="12" viewBox="0 0 12 12" fill="none" xmlns="http://www.w3.org/2000/svg">
<path d="M12 10.998C12 11.1814 11.9496 11.3613 11.8542 11.5179C11.7588 11.6746 11.6222 11.802 11.4593 11.8862C11.2964 11.9705 11.1135 12.0083 10.9305 11.9955C10.7476 11.9828 10.5717 11.92 10.422 11.814L3.422 6.851C3.29197 6.75905 3.18578 6.63738 3.11227 6.49611C3.03875 6.35484 3.00004 6.19805 2.99936 6.0388C2.99867 5.87955 3.03603 5.72244 3.10833 5.58054C3.18062 5.43864 3.28576 5.31606 3.415 5.223L10.415 0.186C10.5643 0.0782852 10.7405 0.0138922 10.9241 -8.2016e-05C11.1077 -0.0140562 11.2916 0.0229301 11.4555 0.106801C11.6194 0.190672 11.757 0.318172 11.8531 0.475246C11.9492 0.632321 12 0.812872 12 0.997L12 10.998ZM0 11.5C0 11.6326 0.0526781 11.7598 0.146446 11.8536C0.240214 11.9473 0.367392 12 0.5 12C0.632608 12 0.759786 11.9473 0.853554 11.8536C0.947322 11.7598 1 11.6326 1 11.5L1 0.5C1 0.367392 0.947322 0.240214 0.853554 0.146446C0.759786 0.0526781 0.632608 0 0.5 0C0.367392 0 0.240214 0.0526781 0.146446 0.146446C0.0526781 0.240214 0 0.367392 0 0.5L0 11.5Z" fill="#EE10B0"/>
</svg>
