<svg width="768" height="604" viewBox="0 0 768 604" fill="none" xmlns="http://www.w3.org/2000/svg">
<g clip-path="url(#clip0_16_357)">
<mask id="mask0_16_357" style="mask-type:alpha" maskUnits="userSpaceOnUse" x="32" y="36" width="529" height="529">
<path d="M296.5 565C442.579 565 561 446.579 561 300.5C561 154.421 442.579 36 296.5 36C150.421 36 32 154.421 32 300.5C32 446.579 150.421 565 296.5 565Z" fill="#503750"/>
</mask>
<g mask="url(#mask0_16_357)">
<path fill-rule="evenodd" clip-rule="evenodd" d="M361.259 573.997H365.075L564.653 374.419V370.602L361.259 573.997Z" fill="#A78291"/>
<path fill-rule="evenodd" clip-rule="evenodd" d="M541.944 573.997H545.76L564.654 555.104V551.287L541.944 573.997Z" fill="#A78291"/>
<path fill-rule="evenodd" clip-rule="evenodd" d="M521.251 573.997H525.068L564.653 534.412V530.595L521.251 573.997Z" fill="#A78291"/>
<path fill-rule="evenodd" clip-rule="evenodd" d="M500.559 573.997H504.376L564.653 513.719V509.903L500.559 573.997Z" fill="#A78291"/>
<path fill-rule="evenodd" clip-rule="evenodd" d="M480.163 573.997H483.98L564.653 493.323V489.507L480.163 573.997Z" fill="#A78291"/>
<path fill-rule="evenodd" clip-rule="evenodd" d="M460.148 573.997H463.964L564.653 473.307V469.491L460.148 573.997Z" fill="#A78291"/>
<path fill-rule="evenodd" clip-rule="evenodd" d="M440.426 573.997H444.242L564.653 453.586V449.77L440.426 573.997Z" fill="#A78291"/>
<path fill-rule="evenodd" clip-rule="evenodd" d="M420.703 573.997H424.521L564.653 433.864V430.047L420.703 573.997Z" fill="#A78291"/>
<path fill-rule="evenodd" clip-rule="evenodd" d="M401.741 573.997H405.558L564.653 414.902V411.084L401.741 573.997Z" fill="#A78291"/>
<path fill-rule="evenodd" clip-rule="evenodd" d="M381.429 573.997H385.245L564.653 394.589V390.773L381.429 573.997Z" fill="#A78291"/>
<path fill-rule="evenodd" clip-rule="evenodd" d="M224.51 573.151H228.327L564.653 236.825V233.009L224.51 573.151Z" fill="#A78291"/>
<path fill-rule="evenodd" clip-rule="evenodd" d="M343.415 573.151H347.232L564.653 355.73V351.913L343.415 573.151Z" fill="#A78291"/>
<path fill-rule="evenodd" clip-rule="evenodd" d="M323.399 573.151H327.216L564.653 335.713V331.898L323.399 573.151Z" fill="#A78291"/>
<path fill-rule="evenodd" clip-rule="evenodd" d="M303.677 573.151H307.494L564.653 315.993V312.175L303.677 573.151Z" fill="#A78291"/>
<path fill-rule="evenodd" clip-rule="evenodd" d="M283.956 573.151H287.772L564.653 296.27V292.453L283.956 573.151Z" fill="#A78291"/>
<path fill-rule="evenodd" clip-rule="evenodd" d="M264.993 573.151H268.81L564.653 277.308V273.491L264.993 573.151Z" fill="#A78291"/>
<path fill-rule="evenodd" clip-rule="evenodd" d="M244.681 573.151H248.497L564.653 256.995V253.179L244.681 573.151Z" fill="#A78291"/>
<path fill-rule="evenodd" clip-rule="evenodd" d="M163.728 573.151H167.545L564.653 176.042V172.226L163.728 573.151Z" fill="#A78291"/>
<path fill-rule="evenodd" clip-rule="evenodd" d="M204.21 573.151H208.027L564.653 216.525V212.709L204.21 573.151Z" fill="#A78291"/>
<path fill-rule="evenodd" clip-rule="evenodd" d="M183.899 573.151H187.715L564.653 196.213V192.397L183.899 573.151Z" fill="#A78291"/>
<path fill-rule="evenodd" clip-rule="evenodd" d="M26.98 573.151H30.7964L564.654 39.294V35.4777L26.98 573.151Z" fill="#A78291"/>
<path fill-rule="evenodd" clip-rule="evenodd" d="M145.884 573.151H149.701L564.653 158.198V154.382L145.884 573.151Z" fill="#A78291"/>
<path fill-rule="evenodd" clip-rule="evenodd" d="M125.868 573.151H129.685L564.653 138.183V134.366L125.868 573.151Z" fill="#A78291"/>
<path fill-rule="evenodd" clip-rule="evenodd" d="M106.146 573.151H109.962L564.653 118.461V114.645L106.146 573.151Z" fill="#A78291"/>
<path fill-rule="evenodd" clip-rule="evenodd" d="M86.4236 573.151H90.2409L564.653 98.7399V94.9227L86.4236 573.151Z" fill="#A78291"/>
<path fill-rule="evenodd" clip-rule="evenodd" d="M67.4614 573.151H71.2786L564.653 79.7769V75.9606L67.4614 573.151Z" fill="#A78291"/>
<path fill-rule="evenodd" clip-rule="evenodd" d="M47.1502 573.151H50.9666L564.653 59.4644V55.6481L47.1502 573.151Z" fill="#A78291"/>
<path fill-rule="evenodd" clip-rule="evenodd" d="M347.818 33.301L24.8023 356.317V360.133L351.634 33.301H347.818Z" fill="#A78291"/>
<path fill-rule="evenodd" clip-rule="evenodd" d="M547.396 33.301L24.8031 555.894V559.711L551.212 33.301H547.396Z" fill="#A78291"/>
<path fill-rule="evenodd" clip-rule="evenodd" d="M528.503 33.301L24.8031 537.001V540.818L532.319 33.301H528.503Z" fill="#A78291"/>
<path fill-rule="evenodd" clip-rule="evenodd" d="M507.811 33.301L24.8031 516.309V520.126L511.627 33.301H507.811Z" fill="#A78291"/>
<path fill-rule="evenodd" clip-rule="evenodd" d="M487.119 33.301L24.8031 495.616V499.434L490.935 33.301H487.119Z" fill="#A78291"/>
<path fill-rule="evenodd" clip-rule="evenodd" d="M466.722 33.301L24.8023 475.221V479.038L470.539 33.301H466.722Z" fill="#A78291"/>
<path fill-rule="evenodd" clip-rule="evenodd" d="M446.707 33.301L24.8031 455.205V459.021L450.523 33.301H446.707Z" fill="#A78291"/>
<path fill-rule="evenodd" clip-rule="evenodd" d="M426.985 33.301L24.8028 435.483V439.3L430.801 33.301H426.985Z" fill="#A78291"/>
<path fill-rule="evenodd" clip-rule="evenodd" d="M407.263 33.301L24.803 415.762V419.578L411.079 33.301H407.263Z" fill="#A78291"/>
<path fill-rule="evenodd" clip-rule="evenodd" d="M388.3 33.301L24.8028 396.799V400.616L392.117 33.301H388.3Z" fill="#A78291"/>
<path fill-rule="evenodd" clip-rule="evenodd" d="M367.988 33.301L24.8031 376.486V380.303L371.805 33.301H367.988Z" fill="#A78291"/>
<path fill-rule="evenodd" clip-rule="evenodd" d="M211.07 33.301L24.8023 219.568V223.385L214.886 33.301H211.07Z" fill="#A78291"/>
<path fill-rule="evenodd" clip-rule="evenodd" d="M329.974 33.301L24.8023 338.473V342.289L333.79 33.301H329.974Z" fill="#A78291"/>
<path fill-rule="evenodd" clip-rule="evenodd" d="M309.958 33.301L24.8031 318.456V322.273L313.775 33.301H309.958Z" fill="#A78291"/>
<path fill-rule="evenodd" clip-rule="evenodd" d="M290.237 33.301L24.8028 298.735V302.551L294.053 33.301H290.237Z" fill="#A78291"/>
<path fill-rule="evenodd" clip-rule="evenodd" d="M270.515 33.301L24.8031 279.013V282.83L274.331 33.301H270.515Z" fill="#A78291"/>
<path fill-rule="evenodd" clip-rule="evenodd" d="M251.552 33.301L24.8029 260.05V263.868L255.369 33.301H251.552Z" fill="#A78291"/>
<path fill-rule="evenodd" clip-rule="evenodd" d="M231.24 33.301L24.8031 239.738V243.555L235.056 33.301H231.24Z" fill="#A78291"/>
<path fill-rule="evenodd" clip-rule="evenodd" d="M149.387 32.4013L23.9033 157.886V161.702L153.204 32.4013H149.387Z" fill="#A78291"/>
<path fill-rule="evenodd" clip-rule="evenodd" d="M189.87 32.4013L23.9035 198.368V202.184L193.686 32.4013H189.87Z" fill="#A78291"/>
<path fill-rule="evenodd" clip-rule="evenodd" d="M169.558 32.4013L23.9032 178.056V181.873L173.374 32.4013H169.558Z" fill="#A78291"/>
<path fill-rule="evenodd" clip-rule="evenodd" d="M131.544 31.5017L23.9031 139.142V142.96L135.361 31.5017H131.544Z" fill="#A78291"/>
<path fill-rule="evenodd" clip-rule="evenodd" d="M111.528 31.5017L23.9031 119.127V122.943L115.344 31.5017H111.528Z" fill="#A78291"/>
<path fill-rule="evenodd" clip-rule="evenodd" d="M91.8058 31.5017L23.9031 99.4044V103.221L95.623 31.5017H91.8058Z" fill="#A78291"/>
<path fill-rule="evenodd" clip-rule="evenodd" d="M72.0839 31.5017L23.9026 79.683V83.4985L75.9002 31.5017H72.0839Z" fill="#A78291"/>
<path fill-rule="evenodd" clip-rule="evenodd" d="M53.1217 31.5017L23.9034 60.72V64.5363L56.938 31.5017H53.1217Z" fill="#A78291"/>
<path fill-rule="evenodd" clip-rule="evenodd" d="M32.8101 35.1L23.9031 44.0066V47.8239L36.6266 35.1H32.8101Z" fill="#A78291"/>
</g>
<path d="M296.5 565C442.579 565 561 446.579 561 300.5C561 154.421 442.579 36 296.5 36C150.421 36 32 154.421 32 300.5C32 446.579 150.421 565 296.5 565Z" fill="#503750" fill-opacity="0.2" stroke="#503750" stroke-width="2.7"/>
<path d="M296.841 398.346C350.692 398.346 394.346 354.692 394.346 300.841C394.346 246.991 350.692 203.337 296.841 203.337C242.991 203.337 199.337 246.991 199.337 300.841C199.337 354.692 242.991 398.346 296.841 398.346Z" fill="#FFCDD2" stroke="#503750" stroke-width="2.7"/>
<path d="M296.632 308.86C301.176 308.86 304.86 305.176 304.86 300.631C304.86 296.087 301.176 292.403 296.632 292.403C292.087 292.403 288.403 296.087 288.403 300.631C288.403 305.176 292.087 308.86 296.632 308.86Z" fill="#1E3264" fill-opacity="0.25" stroke="#503750" stroke-width="2.7"/>
<path fill-rule="evenodd" clip-rule="evenodd" d="M278.895 343.48H283.747V341.277H285.72V343.48H287.405V345.222H285.72V351.486H283.2L278.895 345.611V343.48ZM283.747 345.222H280.666L283.747 349.456V345.222ZM290.645 346.374C290.645 345.05 290.846 343.782 291.537 342.746C292.214 341.738 293.28 341.061 294.821 341.061C296.376 341.061 297.456 341.738 298.118 342.746C298.795 343.782 299.025 345.05 299.025 346.374C299.025 347.699 298.795 348.981 298.118 350.018C297.456 351.026 296.376 351.702 294.821 351.702C293.28 351.702 292.214 351.026 291.537 350.018C290.846 348.981 290.645 347.699 290.645 346.374ZM292.632 346.374C292.632 347.57 292.819 348.52 293.265 349.139C293.611 349.614 294.086 349.931 294.821 349.931C295.569 349.931 296.044 349.614 296.39 349.139C296.836 348.52 297.038 347.57 297.038 346.374C297.038 345.179 296.836 344.229 296.39 343.61C296.044 343.134 295.569 342.818 294.821 342.818C294.086 342.818 293.611 343.134 293.265 343.61C292.819 344.229 292.632 345.179 292.632 346.374ZM302.279 343.48H307.132V341.277H309.105V343.48H310.789V345.222H309.105V351.486H306.585L302.279 345.611V343.48ZM307.132 345.222H304.051L307.132 349.456V345.222Z" fill="#F037A5"/>
<path fill-rule="evenodd" clip-rule="evenodd" d="M278.895 262.016H283.747V264.219H285.72V262.016H287.405V260.274H285.72V254.01H283.2L278.895 259.885V262.016ZM283.747 260.274H280.666L283.747 256.04V260.274ZM290.645 259.122C290.645 260.447 290.846 261.714 291.537 262.751C292.214 263.759 293.28 264.435 294.821 264.435C296.376 264.435 297.456 263.759 298.118 262.751C298.795 261.714 299.025 260.447 299.025 259.122C299.025 257.797 298.795 256.515 298.118 255.479C297.456 254.471 296.376 253.794 294.821 253.794C293.28 253.794 292.214 254.471 291.537 255.479C290.846 256.515 290.645 257.797 290.645 259.122ZM292.632 259.122C292.632 257.927 292.819 256.976 293.265 256.357C293.611 255.882 294.086 255.565 294.821 255.565C295.569 255.565 296.044 255.882 296.39 256.357C296.836 256.976 297.038 257.927 297.038 259.122C297.038 260.317 296.836 261.267 296.39 261.887C296.044 262.362 295.569 262.679 294.821 262.679C294.086 262.679 293.611 262.362 293.265 261.887C292.819 261.267 292.632 260.317 292.632 259.122ZM302.279 262.016H307.132V264.219H309.105V262.016H310.789V260.274H309.105V254.01H306.585L302.279 259.885V262.016ZM307.132 260.274H304.051L307.132 256.04V260.274Z" fill="#F037A5"/>
</g>
<path d="M503.057 570.467C501.819 570.651 500.73 570.572 499.527 570.214C498.46 569.894 497.689 569.155 497.318 568.101C497.004 567.213 496.961 566.382 497.174 565.468C497.475 564.177 498.407 563.245 499.693 562.944C501.109 562.615 502.364 562.55 503.811 562.738C504.443 562.821 504.97 562.926 505.584 563.088V565.691H504.111C504.124 565.45 504.111 565.244 504.063 565.004C503.998 564.671 503.798 564.418 503.493 564.269C502.795 563.937 502.09 563.888 501.353 564.125C500.861 564.282 500.508 564.632 500.347 565.126C500.046 566.058 500.015 566.924 500.255 567.878C500.377 568.35 500.643 568.709 501.052 568.971C501.619 569.251 502.198 569.291 502.795 569.089C502.939 569.046 503.057 568.998 503.192 568.932C503.658 568.648 503.928 568.197 503.968 567.655H505.798C505.793 568.429 505.48 569.089 504.883 569.579C504.325 570.039 503.758 570.314 503.057 570.467Z" fill="#503750"/>
<path d="M491.761 562.503C490.893 562.509 490.025 562.687 489.151 563.039C488.589 563.258 488.153 563.558 487.735 563.995C486.989 564.778 486.668 565.747 486.799 566.823C486.855 568.192 487.606 569.335 488.839 569.926C490.116 570.534 491.348 570.743 492.751 570.59C493.313 570.533 493.781 570.428 494.317 570.248C495.472 569.863 496.246 568.911 496.389 567.695H494.203C494.15 568.404 493.684 568.971 492.999 569.159C492.254 569.364 491.558 569.304 490.86 568.967C490.224 568.661 489.862 568.03 489.918 567.321H496.507C497.03 565.532 496.108 563.67 494.378 563.001C493.5 562.664 492.629 562.497 491.761 562.503ZM491.838 563.944C491.901 563.944 491.964 563.947 492.032 563.953C492.202 563.971 492.347 563.997 492.512 564.036C493.332 564.238 493.885 564.961 493.859 565.81H489.905C489.936 564.834 490.669 564.042 491.64 563.95C491.71 563.946 491.774 563.943 491.838 563.944Z" fill="#503750"/>
<path d="M487.775 563.092H486.185L486.128 561.85C486.115 561.544 485.862 561.303 485.557 561.303H482.995V568.595C482.995 568.888 483.226 569.129 483.518 569.142L484.886 569.199V570.441H478.25V569.199L479.618 569.142C479.915 569.129 480.141 568.888 480.141 568.595V561.303H477.579C477.274 561.303 477.021 561.544 477.008 561.85L476.952 563.092H475.361V559.606H487.775V563.092Z" fill="#503750"/>
<path d="M511.545 562.734C510.979 562.865 510.521 563.092 510.081 563.473V559.759H505.854V560.905L506.695 560.944C507.022 560.962 507.275 561.229 507.275 561.553V568.656C507.275 568.98 507.018 569.243 506.695 569.251L505.854 569.278V570.441H511.506V569.278L510.665 569.251C510.342 569.243 510.09 568.98 510.09 568.656V565.376C510.129 565.03 510.281 564.746 510.543 564.518C510.591 564.479 510.63 564.448 510.682 564.418C511.057 564.186 511.432 564.081 511.868 564.094C512.107 564.098 512.308 564.142 512.526 564.234C513 564.426 513.292 564.855 513.301 565.367V568.656C513.301 568.98 513.044 569.243 512.726 569.251L511.885 569.278V570.446V570.441H517.563V569.278L516.687 569.251C516.364 569.243 516.107 568.98 516.107 568.656V565.253C516.103 564.208 515.502 563.328 514.534 562.952C513.536 562.567 512.587 562.497 511.545 562.734Z" fill="#503750"/>
<path d="M517.772 563.967H517.789C518.09 563.98 518.343 563.993 518.643 564.007C518.953 564.028 519.188 564.286 519.184 564.597V568.656C519.184 568.98 518.931 569.243 518.609 569.251L517.776 569.278V570.441H523.406V569.278L522.548 569.251C522.225 569.243 521.968 568.98 521.968 568.656V565.393C521.968 564.925 522.221 564.527 522.644 564.335C523.127 564.107 523.602 564.055 524.125 564.164C524.77 564.304 525.214 564.86 525.21 565.52V568.656C525.21 568.98 524.953 569.243 524.631 569.251L523.794 569.278V570.441H529.441V569.278L528.574 569.251C528.256 569.243 527.999 568.98 527.999 568.656V565.314C527.986 564.593 527.698 563.985 527.149 563.517C525.498 562.292 523.341 562.305 521.702 563.543V562.825H517.768V563.967H517.772Z" fill="#503750"/>
<path d="M529.833 562.826H534.038V568.656C534.038 568.98 534.295 569.243 534.613 569.251L535.476 569.278V570.441H529.838V569.278L530.67 569.251C530.992 569.243 531.249 568.98 531.249 568.656V564.562V564.571C531.249 564.247 530.988 563.98 530.666 563.98H530.661H529.833V562.826Z" fill="#503750"/>
<path d="M534.134 561.469C534.526 561.067 534.531 560.433 534.147 560.022C533.367 559.182 532.06 559.138 531.223 559.921C531.219 559.921 531.219 559.925 531.215 559.925C530.77 560.345 530.753 561.05 531.171 561.496C531.188 561.518 531.206 561.531 531.228 561.553C532.06 562.322 533.345 562.287 534.134 561.469Z" fill="#503750"/>
<path d="M536.069 568.101C536.439 569.155 537.215 569.894 538.282 570.214C539.481 570.572 540.57 570.651 541.812 570.467C542.513 570.314 543.08 570.039 543.633 569.579C544.235 569.089 544.548 568.429 544.548 567.655H542.718C542.683 568.197 542.409 568.648 541.943 568.932C541.812 568.998 541.694 569.046 541.55 569.089C540.953 569.291 540.37 569.251 539.807 568.971C539.393 568.709 539.128 568.35 539.01 567.878C538.766 566.924 538.797 566.058 539.097 565.126C539.258 564.632 539.611 564.282 540.108 564.125C540.845 563.888 541.546 563.937 542.243 564.269C542.553 564.418 542.749 564.671 542.818 565.004C542.862 565.244 542.879 565.45 542.866 565.691H544.335V563.088C543.72 562.926 543.193 562.821 542.561 562.738C541.119 562.55 539.864 562.615 538.444 562.944C537.162 563.245 536.226 564.177 535.925 565.468C535.711 566.382 535.759 567.213 536.069 568.101Z" fill="#503750"/>
<path d="M546.457 563.035C546.165 563.184 545.934 563.337 545.69 563.552C544.927 564.19 544.827 565.328 545.463 566.093C545.625 566.286 545.79 566.417 546.008 566.535C546.814 566.88 547.511 567.13 548.357 567.366C548.893 567.523 549.341 567.672 549.869 567.865C550.161 568 550.291 568.355 550.152 568.648C550.1 568.757 550.03 568.84 549.925 568.906C549.738 569.024 549.559 569.103 549.346 569.159C548.605 569.334 547.93 569.308 547.206 569.063C546.827 568.936 546.579 568.608 546.553 568.21L546.509 567.453H545.193V570.004C546.531 570.419 547.721 570.581 549.124 570.542C550.078 570.516 550.888 570.323 551.755 569.912C552.047 569.776 552.274 569.614 552.501 569.383C553.198 568.779 553.272 567.72 552.671 567.02C552.527 566.854 552.383 566.736 552.191 566.635C551.816 566.447 551.49 566.307 551.093 566.172C550.056 565.848 549.18 565.577 548.143 565.253C547.829 565.118 547.686 564.746 547.825 564.431C547.899 564.26 548.03 564.146 548.209 564.09C549.076 563.775 549.904 563.766 550.779 564.05C551.128 564.181 551.359 564.479 551.394 564.851L551.459 565.533H552.836V562.957C551.703 562.72 550.727 562.602 549.572 562.567C548.875 562.545 548.283 562.58 547.594 562.681C547.18 562.742 546.836 562.852 546.457 563.035Z" fill="#503750"/>
<path d="M417.5 575C422.747 575 427 570.747 427 565.5C427 560.253 422.747 556 417.5 556C412.253 556 408 560.253 408 565.5C408 570.747 412.253 575 417.5 575Z" fill="#DCAFB8" stroke="#503750" stroke-width="2.7"/>
<path d="M443.5 575C448.747 575 453 570.747 453 565.5C453 560.253 448.747 556 443.5 556C438.253 556 434 560.253 434 565.5C434 570.747 438.253 575 443.5 575Z" stroke="#503750" stroke-width="2.7"/>
<path d="M622.5 236C668.063 236 705 199.063 705 153.5C705 107.937 668.063 71 622.5 71C576.937 71 540 107.937 540 153.5C540 199.063 576.937 236 622.5 236Z" fill="#503750" stroke="#503750" stroke-width="2.7"/>
<path d="M424.681 436.159L409.456 422.399L560.969 284.345L561.044 284.276L561.108 284.197C578.263 263.02 597.785 224.604 604.779 198.248L638.328 71.8194L661.101 72.4823L625.36 207.669C618.092 235.16 597.501 275.311 579.409 297.286L424.681 436.159Z" fill="#FFCDD2" stroke="#503750" stroke-width="2.7"/>
<path d="M422.468 442.3L421.634 443.08L422.266 444.032L432.735 459.798C433.303 460.653 433.141 461.966 432.438 462.605L432.386 462.652L432.34 462.703L432.34 462.703L432.34 462.703L432.34 462.703L432.339 462.704L432.337 462.707L432.317 462.728C432.298 462.749 432.268 462.781 432.228 462.822C432.149 462.905 432.031 463.026 431.883 463.169C431.584 463.458 431.176 463.823 430.726 464.153C430.264 464.491 429.82 464.745 429.444 464.869C429.067 464.993 428.931 464.933 428.903 464.918C428.903 464.919 428.896 464.915 428.88 464.905C428.865 464.896 428.845 464.882 428.819 464.865C428.767 464.829 428.7 464.78 428.619 464.717C428.455 464.591 428.251 464.422 428.009 464.211C427.526 463.791 426.924 463.234 426.243 462.582C424.881 461.279 423.236 459.631 421.643 458.006C420.052 456.384 418.52 454.792 417.385 453.606C416.817 453.013 416.349 452.522 416.024 452.179C415.861 452.007 415.733 451.873 415.647 451.781L415.548 451.677L415.523 451.651L415.517 451.644L415.515 451.642L415.515 451.642C415.515 451.642 415.515 451.642 414.533 452.569L415.515 451.642L414.54 450.61L413.559 451.635L391.188 474.988C390.579 475.624 389.626 475.616 389.028 474.978L368.49 453.051C367.904 452.426 367.969 451.523 368.652 450.982L411.458 417.096C412.213 416.499 413.42 416.58 414.09 417.277L429.586 433.385C430.217 434.042 430.19 435.068 429.529 435.686L422.468 442.3Z" fill="#FFCDD2" stroke="#503750" stroke-width="2.7"/>
<path d="M631.114 57.534L672.004 67.1247C676.655 68.2156 679.541 72.8704 678.45 77.5214L677.309 82.3893C676.218 87.0403 671.563 89.9264 666.912 88.8355L626.022 79.2448C621.37 78.1539 618.484 73.4991 619.575 68.8481L620.717 63.9802C621.808 59.3291 626.463 56.4431 631.114 57.534Z" fill="#DCAFB8" stroke="#503750" stroke-width="2.7"/>
<mask id="path-77-inside-1_16_357" fill="white">
<rect x="21" y="540" width="66.25" height="40" rx="2"/>
</mask>
<rect x="21" y="540" width="66.25" height="40" rx="2" fill="#DCAFB8" stroke="#503750" stroke-width="5.4" mask="url(#path-77-inside-1_16_357)"/>
<mask id="path-78-inside-2_16_357" fill="white">
<rect x="91.25" y="566" width="60.6667" height="14" rx="2"/>
</mask>
<rect x="91.25" y="566" width="60.6667" height="14" rx="2" fill="#FFCDD2" stroke="#503750" stroke-width="5.4" mask="url(#path-78-inside-2_16_357)"/>
<mask id="path-79-inside-3_16_357" fill="white">
<rect x="148.917" y="566" width="60.6667" height="14" rx="2"/>
</mask>
<rect x="148.917" y="566" width="60.6667" height="14" rx="2" fill="#FFCDD2" stroke="#503750" stroke-width="5.4" mask="url(#path-79-inside-3_16_357)"/>
<g clip-path="url(#clip1_16_357)">
<path d="M714.5 532L714.5 307" stroke="#503750" stroke-width="2.7" stroke-linecap="round"/>
<mask id="path-81-inside-4_16_357" fill="white">
<rect x="701" y="446" width="27" height="20" rx="2"/>
</mask>
<rect x="701" y="446" width="27" height="20" rx="2" fill="#DCAFB8" stroke="#503750" stroke-width="5.4" mask="url(#path-81-inside-4_16_357)"/>
</g>
<path d="M47 502C61.3594 502 73 490.359 73 476C73 461.641 61.3594 450 47 450C32.6406 450 21 461.641 21 476C21 490.359 32.6406 502 47 502Z" fill="#503750" stroke="#503750" stroke-width="2.7"/>
<path d="M51.5 97C68.3447 97 82 83.3447 82 66.5C82 49.6553 68.3447 36 51.5 36C34.6553 36 21 49.6553 21 66.5C21 83.3447 34.6553 97 51.5 97Z" stroke="#503750" stroke-width="2.7"/>
<rect x="1.35" y="1.35" width="765.3" height="601.3" rx="10.65" stroke="#503750" stroke-width="2.7"/>
<defs>
<clipPath id="clip0_16_357">
<rect width="533" height="533" fill="white" transform="translate(30 34)"/>
</clipPath>
<clipPath id="clip1_16_357">
<rect width="53" height="225" fill="white" transform="translate(678 307)"/>
</clipPath>
</defs>
</svg>
